<?xml version="1.0" encoding="utf-8"?>
<!-- Generator: Adobe Illustrator 25.4.1, SVG Export Plug-In . SVG Version: 6.00 Build 0)  -->
<svg version="1.1" id="Layer_1" xmlns="http://www.w3.org/2000/svg" xmlns:xlink="http://www.w3.org/1999/xlink" x="0px" y="0px"
	 viewBox="0 0 420 420" style="enable-background:new 0 0 420 420;" xml:space="preserve">
<style type="text/css">
	.st0{fill:#3F51B5;}
</style>
<g>
	<path class="st0" d="M191.9,420c-0.3,0-0.5,0-0.8,0l-11.8-1.5c-44.5-5.5-83-23.4-114.3-53.2C12.2,314.4-8.6,252.2,3.2,180.1
		C11.3,130.6,35.9,89,76.3,56.6C113.4,26.8,156,11.7,203,11.7c7.1,0,14.5,0.4,21.8,1.1c25.7,2.5,50.1,9.8,72.8,21.7
		c5,2.6,9.9,5.5,15,8.4c0.9,0.5,1.8,1.1,2.7,1.6c6.4-6.4,12.9-12.9,19.3-19.4c7.6-7.7,15.3-15.4,23.1-23.2c1.2-1.2,2.7-1.8,4.2-1.8
		c0.9,0,1.8,0.2,2.7,0.6c2.3,1.2,3.6,3.7,3.3,6.2c-1.7,11.6-3.3,23.1-4.9,34.7c-0.8,5.9-1.7,11.9-2.5,17.8l52.2-7.4
		c0.3,0,0.6-0.1,0.8-0.1c2,0,3.9,1,5,2.7c0.2,0.2,0.3,0.4,0.4,0.6l0.1,0.2c1.6,2.4,1.3,5.6-0.8,7.6c-7.6,7.6-15.2,15.2-22.8,22.7
		c-6.6,6.5-13.1,13.1-19.7,19.6c0.6,0.9,1.1,1.8,1.7,2.6c0,0,0.1,0.1,0.1,0.1c17.8,28.3,28,59.5,30.2,92.5
		c3.5,50.7-9.7,96.6-39.3,136.4c-32.2,43.3-75.5,70.2-128.6,79.9c-5.3,0.9-10.7,1.6-15.9,2.3c-2.1,0.3-4.3,0.5-6.4,0.8
		c-0.3,0-0.5,0.1-0.8,0.1H191.9z M204.2,60.8c-45.9,0-87.8,19.3-117.9,54.4C33.2,177,37.5,270,96,326.9c29.3,28.4,67.7,44,108,44
		c41.3,0,81.5-16.8,110.3-46c59.9-60.9,54.7-147.8,15.3-199.7c-11.9,11.7-23.6,23.4-35.8,35.6c13.3,22.4,18.2,48.3,13.8,73.4
		c-4.5,25.5-18,48.1-37.9,63.7C250.3,313,227.7,321,204.2,321c-26.8,0-52.9-10.7-73.4-30c-36.1-34-42.1-93-13.5-134.3
		c15.4-22.2,36.1-36.6,61.4-42.7c8.9-2.2,17.8-3.3,26.4-3.3c18.6,0,36.5,5,53.2,15l35.9-35.9C268.8,71.1,237.1,60.8,204.2,60.8z
		 M204,159.8c-16.9,0-32.6,7.5-43.2,20.6c-18.1,22.4-16.5,54.5,3.8,74.8c10.6,10.6,24.6,16.4,39.5,16.4c12.8,0,25.4-4.5,35.4-12.6
		c20.7-16.7,24.2-42.3,17.4-61.2c-2.6,2.6-5.1,5.1-7.7,7.7c-7.1,7.1-14.5,14.5-21.8,21.7c-5.4,5.4-11.8,8.2-18.4,8.2
		c-3.4,0-6.9-0.8-10.2-2.3c-7.4-3.4-12.4-9.8-13.8-17.5c-1.5-8.2,1.2-16.5,7.3-22.8c7.4-7.5,15-15,22.3-22.3c2.5-2.5,5-5,7.5-7.5
		C216.5,160.9,210.4,159.8,204,159.8z"/>
	<path class="st0" d="M216.7,414c-8.2,0-16.5,0-24.8,0c-3.9-0.5-7.9-1-11.8-1.5c-42.5-5.2-80-22.1-110.9-51.6
		C17.9,311.6-2.4,251.3,9.1,181.1c8-48.8,32.4-88.9,70.9-119.8c42.1-33.8,90.5-47.7,144.2-42.6c24.9,2.4,48.5,9.4,70.6,21
		c7,3.7,13.8,7.8,21.5,12.2C331.4,36.8,346.5,21.5,362,6c-2.9,20.2-5.7,40.1-8.6,60.4c20.5-2.9,40.3-5.7,60.1-8.5
		c0.2,0.3,0.3,0.5,0.5,0.8c-15.3,15.2-30.6,30.5-45.9,45.7c1.6,2.5,2.9,4.7,4.3,6.8c17.2,27.4,27.1,57.4,29.3,89.7
		c3.4,48.6-8.9,93.2-38.1,132.4c-31.4,42.2-73.1,68.1-124.9,77.6C231.4,412.2,224,413,216.7,414z M286.2,159.9
		c30.8,46.9,17.2,103.9-20.2,133.2c-40.3,31.5-93.8,28.7-131.1-6.5c-34-32-39.6-87.6-12.7-126.5c14.3-20.6,33.5-34.4,57.9-40.3
		c28.5-7,55.1-2.1,79.1,13.5c14.9-14.9,29.5-29.5,44.1-44.1c-61.5-49.9-161.4-47.9-221.5,22.1C27,175,30.6,271.7,91.8,331.2
		c65.3,63.3,166.4,59.3,226.8-2.1c63.7-64.8,56.6-159.2,11.6-212.8c-0.5,0.4-1,0.8-1.5,1.3C314.6,131.5,300.5,145.6,286.2,159.9z
		 M258.4,186.9c-1.1,1.4-1.9,2.6-2.8,3.5c-10.8,10.8-21.6,21.7-32.5,32.5c-6.6,6.5-14.4,8.1-21.8,4.7c-12.1-5.6-14.4-20.7-4.7-30.7
		c11-11.2,22.2-22.2,33.3-33.3c0.8-0.8,1.5-1.7,2.3-2.6c-21.7-12.4-55.6-9.7-76.1,15.6c-20.1,24.8-18.2,60.4,4.2,82.8
		s58,24.3,82.9,4.2C268.5,243.2,271.3,209.3,258.4,186.9z"/>
</g>
</svg>
