<?xml version="1.0" encoding="utf-8"?>
<!-- Generator: Adobe Illustrator 25.2.1, SVG Export Plug-In . SVG Version: 6.00 Build 0)  -->
<svg version="1.1" id="Camada_1" xmlns="http://www.w3.org/2000/svg" xmlns:xlink="http://www.w3.org/1999/xlink" x="0px" y="0px"
	 viewBox="0 0 736.3 188.6" style="enable-background:new 0 0 736.3 188.6;" xml:space="preserve">
<style type="text/css">
	.st0{fill:#FFFFFF;}
</style>
<g>
	<path class="st0" d="M548.6,53.6h-0.5L536,76.1l-17.9,33.1h35.8L548.6,53.6z M548.6,53.6h-0.5L536,76.1l-17.9,33.1h35.8L548.6,53.6
		z M735.8,27.6V0.1H0.6v27.5H40v4.8H0.6v26.7H40v5H0.6v27.7H40v4.8H0.6v28H40v5H0.6v26.8H40v5H0.6v27.2h735.2v-27.2h-39.6v-5h39.6
		v-26.8h-39.6v-5h39.6v-28h-39.6v-4.8h39.6V64.1h-39.6v-5h39.6V32.4h-39.6v-4.8H735.8z M179.8,66.9h-36.9c1.2-5.3,0.3-9.1-2.3-11.9
		c-2.7-2.8-7.1-4.3-13.4-4.3c-8.6,0-17.1,5.6-18.5,12.3c-2,9.8,9.1,12.9,18.4,15.6c21.2,5.8,53.3,7.9,45.7,44.1
		c-6.1,28.2-36.6,41.6-67.6,41.6c-31.1,0-56.6-9.1-49.5-45.4h37.1c-2.8,12.6,5,19.4,18.2,19.4c8.6,0,20.4-4.5,22.4-13.2
		c3.8-18.2-24.3-14.4-50.8-27.2c-12.3-6-16.2-18.1-13.2-32.6c8.3-31.6,37.9-40.2,65.9-40.2C162.5,24.8,188.9,34.6,179.8,66.9z
		 M293.2,107h-59.6l-6,28.3h64.8l-5.5,26H185.1l28.5-133.8h101.9l-3.8,17.7l-1.8,8.3H245l-5.8,27.7h59.6L293.2,107z M387,161.3
		L363.3,58.8h-0.3l-21.7,102.5h-33.5l3.8-17.7l24.7-116.1h51.8l23.7,99.7l0.3-0.3l21.2-99.4h33.3l-7.3,34.8l-21,99H387z
		 M560.9,161.3l-3.3-26.2h-54.3L489,161.3h-37.1l7.5-12.1l73.9-121.6h45.1l24.3,133.7H560.9z M653.8,161.3h-37.1l28.5-133.8h37.1
		L653.8,161.3z M548.1,53.6L536,76.1l-17.9,33.1h35.8l-5.3-55.6H548.1z"/>
</g>
</svg>
